<?xml version="1.0" encoding="UTF-8" standalone="no"?>
<!-- Created with Inkscape (http://www.inkscape.org/) -->

<svg
   width="375mm"
   height="55mm"
   viewBox="0 0 375.00001 55"
   version="1.1"
   id="svg38384"
   inkscape:version="1.1.2 (b8e25be833, 2022-02-05)"
   sodipodi:docname="logo.svg"
   xmlns:inkscape="http://www.inkscape.org/namespaces/inkscape"
   xmlns:sodipodi="http://sodipodi.sourceforge.net/DTD/sodipodi-0.dtd"
   xmlns:xlink="http://www.w3.org/1999/xlink"
   xmlns="http://www.w3.org/2000/svg"
   xmlns:svg="http://www.w3.org/2000/svg">
  <sodipodi:namedview
     id="namedview38386"
     pagecolor="#00000f"
     bordercolor="#eeeeee"
     borderopacity="1"
     inkscape:pageshadow="0"
     inkscape:pageopacity="1"
     inkscape:pagecheckerboard="0"
     inkscape:document-units="mm"
     showgrid="true"
     fit-margin-top="0"
     fit-margin-left="0"
     fit-margin-right="0"
     fit-margin-bottom="0"
     inkscape:snap-bbox="true"
     inkscape:snap-global="true"
     inkscape:snap-bbox-edge-midpoints="true"
     inkscape:bbox-paths="true"
     inkscape:snap-nodes="true"
     inkscape:snap-others="true"
     inkscape:snap-grids="true"
     inkscape:snap-to-guides="true"
     inkscape:bbox-nodes="false"
     inkscape:snap-bbox-midpoints="false"
     inkscape:snap-page="false"
     inkscape:zoom="0.5"
     inkscape:cx="677"
     inkscape:cy="117"
     inkscape:window-width="1920"
     inkscape:window-height="1001"
     inkscape:window-x="-9"
     inkscape:window-y="-9"
     inkscape:window-maximized="1"
     inkscape:current-layer="g1146"
     height="103.05967mm">
    <inkscape:grid
       type="xygrid"
       id="grid2435"
       spacingx="0.13229166"
       spacingy="0.13229166"
       originx="-123.10513"
       originy="-12.756879" />
  </sodipodi:namedview>
  <defs
     id="defs38381">
    <linearGradient
       inkscape:collect="always"
       id="linearGradient54086">
      <stop
         style="stop-color:#b0f22b;stop-opacity:1"
         offset="0"
         id="stop54082" />
      <stop
         style="stop-color:#12fff7;stop-opacity:1"
         offset="1"
         id="stop54084" />
    </linearGradient>
    <linearGradient
       inkscape:collect="always"
       xlink:href="#linearGradient54086"
       id="linearGradient54088"
       x1="59.746674"
       y1="28.916636"
       x2="285.27817"
       y2="28.916636"
       gradientUnits="userSpaceOnUse" />
  </defs>
  <g
     inkscape:label="Layer 1"
     inkscape:groupmode="layer"
     id="layer1"
     transform="translate(-129.64254,-19.177677)">
    <g
       id="g1146"
       transform="translate(101.49513,-9.053121)">
      <path
         id="rect2439"
         style="display:inline;fill:#0d1117;stroke:#ffffff;stroke-width:0.3;stroke-opacity:0"
         d="M 65.82711,28.412571 H 365.4677 V 83.049026 H 65.82711 Z" />
      <g
         id="g1004"
         transform="translate(69.639623,26.814166)">
        <path
           id="path34836-0"
           style="display:inline;fill:#000000;fill-opacity:0;stroke:#12fff7;stroke-width:1.2;stroke-linecap:butt;stroke-linejoin:miter;stroke-miterlimit:4;stroke-dasharray:none;stroke-opacity:1"
           d="m 30.356173,38.70621 a 5.5562525,5.5562525 0 0 1 -5.55625,5.556252 5.5562525,5.5562525 0 0 1 -5.556254,-5.556252 5.5562525,5.5562525 0 0 1 5.556254,-5.556253 5.5562525,5.5562525 0 0 1 5.55625,5.556253 z M 17.126999,26.932257 h -2.64583 m 3.175,-19.7114591 H 41.733256 V 50.612467 H 7.3374119 v -33.73441 z m -10.2526171,9.6572891 10.2526171,5e-5 -5e-5,-9.5911391 m 6.879214,12.8983791 v 6.74688 h 9.525003 m -16.933337,-4.10104 v 4.10104 h 7.408334 m 7.408342,-4.10104 v 4.10104 m -7.143752,6.35 c 0,0.26458 0,4.82865 0,5.42396 0.39687,0 4.86149,0.004 5.68854,0" />
        <g
           aria-label=" pynalyser"
           id="text40476"
           style="font-size:37.6816px;line-height:1.25;fill:url(#linearGradient54088);stroke-width:0.942">
          <path
             d="m 71.095915,14.814298 h -9.759534 v 28.223517 h 5.539195 V 29.811574 h 4.48411 c 3.673956,0 5.802966,-2.091329 5.802966,-5.746444 0,-3.410185 -2.12901,-5.520354 -5.539195,-5.520354 h -6.330508 v 7.53632 h 1.582627 v -5.953693 h 4.747881 c 2.543508,0 3.956568,1.431901 3.956568,3.937727 0,2.260896 -0.960881,4.163817 -4.220339,4.163817 H 65.292949 V 41.455188 H 62.919008 V 16.396925 h 8.176907 c 7.611683,0 8.440678,5.350787 8.440678,7.668205 0,4.747882 -2.920324,7.894295 -7.743568,7.894295 h -2.543508 v 1.582627 h 2.543508 c 5.934851,0 9.326195,-4.088453 9.326195,-9.476922 0,-4.879767 -2.920324,-9.250832 -10.023305,-9.250832 z"
             style="font-family:'LIBRARY 3 AM';-inkscape-font-specification:'LIBRARY 3 AM'"
             id="path939" />
          <path
             d="M 101.9383,14.814298 94.10053,29.152146 87.091753,16.396925 h 2.637712 l 4.352224,7.969658 0.904359,-1.63915 -4.314543,-7.913135 h -6.255146 l 9.684171,17.634988 8.77981,-16.052361 h 2.63771 l -8.026176,14.676983 v 10.38128 h -2.373941 v -6.858051 h -1.582627 v 8.440678 h 5.539195 v -11.54941 l 9.118949,-16.674107 z"
             style="font-family:'LIBRARY 3 AM';-inkscape-font-specification:'LIBRARY 3 AM'"
             id="path941" />
          <path
             d="M 129.86036,33.278281 118.98922,14.814298 h -1.8464 l 14.30017,24.28579 V 16.396925 h 2.37394 v 25.058263 h -3.63627 l -15.71323,-26.64089 h -1.56379 v 28.223517 h 5.5392 V 29.24635 l -1.58263,-2.694234 v 14.903072 h -2.37394 V 17.960711 l 14.79003,25.077104 h 6.12326 V 14.814298 h -5.5392 z"
             style="font-family:'LIBRARY 3 AM';-inkscape-font-specification:'LIBRARY 3 AM'"
             id="path943" />
          <path
             d="m 155.91722,14.814298 h -5.5392 l -6.34935,17.465421 h 14.16828 l -5.04933,-13.885669 -3.6928,10.15519 h 1.67684 l 2.01596,-5.520354 2.78844,7.668206 h -9.64649 l 5.20006,-14.300167 h 3.31598 l 9.11895,25.058263 h -2.41162 l -2.54351,-7.027618 h -15.73207 l -3.12757,8.610245 h 5.76528 l 1.77104,-4.879767 h -1.67683 l -1.20582,3.29714 h -2.39278 l 1.97829,-5.444991 h 13.50885 l 2.54351,7.027618 h 5.78412 z"
             style="font-family:'LIBRARY 3 AM';-inkscape-font-specification:'LIBRARY 3 AM'"
             id="path945" />
          <path
             d="M 172.4783,37.72471 V 16.396925 h 2.37395 v 19.179934 h 1.58262 V 14.814298 h -5.53919 v 24.493039 h 14.01755 v 2.147851 h -14.01755 v 1.582627 h 15.60018 V 37.72471 Z"
             style="font-family:'LIBRARY 3 AM';-inkscape-font-specification:'LIBRARY 3 AM'"
             id="path947" />
          <path
             d="m 204.95984,14.814298 -7.83777,14.337848 -7.00878,-12.755221 h 2.63771 l 4.35223,7.969658 0.90436,-1.63915 -4.31455,-7.913135 h -6.25514 l 9.68417,17.634988 8.77981,-16.052361 h 2.63771 l -8.02618,14.676983 v 10.38128 h -2.37394 v -6.858051 h -1.58263 v 8.440678 h 5.5392 v -11.54941 l 9.11895,-16.674107 z"
             style="font-family:'LIBRARY 3 AM';-inkscape-font-specification:'LIBRARY 3 AM'"
             id="path949" />
          <path
             d="m 225.89196,24.668036 -0.52754,1.488423 c 4.52179,1.865239 6.53776,4.691359 6.53776,8.94938 0,2.12901 -0.77247,3.824682 -2.27974,4.973971 -1.5261,1.149288 -3.74932,1.771035 -6.42471,1.771035 -2.78844,0 -5.20006,-0.546383 -7.85661,-1.808717 l 0.81015,-2.147851 c 2.58119,1.205811 4.95513,1.808717 7.04646,1.808717 5.52035,0 6.33051,-2.882643 6.33051,-4.597155 0,-4.484111 -2.99569,-5.87833 -5.61456,-7.29139 -2.05365,-1.111607 -3.88121,-2.053647 -3.88121,-4.95513 0,-1.997125 1.45075,-3.146413 4.25803,-3.146413 2.20437,0 4.23918,0.640587 6.53775,1.827557 l 1.88408,-5.124697 c -2.37394,-1.205812 -4.05077,-2.015966 -8.44068,-2.015966 -5.2189,0 -9.77837,2.863802 -9.77837,8.47836 0,4.371065 2.22321,7.479797 6.2363,9.288514 l 0.54639,-1.488423 c -2.92033,-1.337697 -5.20006,-3.692797 -5.20006,-7.800091 0,-4.578314 3.69279,-6.895733 8.19574,-6.895733 3.46671,0 4.78557,0.47102 6.4624,1.224652 l -0.79131,2.166692 c -2.01597,-0.847836 -3.80585,-1.243493 -5.65224,-1.243493 -4.18266,0 -5.84065,2.298578 -5.84065,4.729041 0,3.692797 2.31742,5.068175 4.67252,6.330509 2.39278,1.300015 4.82324,2.279736 4.82324,5.916011 0,2.110169 -1.69567,3.014527 -4.74788,3.014527 -2.56235,0 -5.33195,-1.055084 -7.91314,-2.411622 l -1.92176,5.105857 c 2.82612,1.526105 5.85949,2.618871 9.8349,2.618871 5.97253,0 10.28708,-2.82612 10.28708,-8.327633 0,-5.200061 -2.6754,-8.440679 -7.59285,-10.437803 z"
             style="font-family:'LIBRARY 3 AM';-inkscape-font-specification:'LIBRARY 3 AM'"
             id="path951" />
          <path
             d="M 245.14725,37.72471 V 27.155021 h 9.64649 v 2.147851 h -7.27255 V 30.8855 h 8.85518 v -5.313106 h -12.81175 v 13.734943 h 11.92623 v 2.147851 H 241.19068 V 16.396925 h 14.0364 v 2.147851 h -11.66246 v 4.879767 h 1.58263 v -3.29714 h 11.66246 v -5.313105 h -17.20165 v 28.223517 h 17.46542 V 37.72471 Z"
             style="font-family:'LIBRARY 3 AM';-inkscape-font-specification:'LIBRARY 3 AM'"
             id="path953" />
          <path
             d="m 273.40846,14.814298 h -9.7407 v 28.223517 h 5.5392 V 30.320276 l 9.3262,12.717539 h 6.745 L 275.00993,29.189828 c 2.88264,-0.414498 4.55947,-2.430464 4.55947,-5.426151 0,-3.165254 -2.29858,-5.218901 -5.87833,-5.218901 h -6.06674 v 7.046459 h 1.58263 v -5.463832 h 4.48411 c 2.61887,0 4.2957,1.262334 4.2957,3.636274 0,2.11017 -0.99856,3.975409 -4.48411,3.975409 h -1.54494 l 10.17403,13.716102 h -2.78844 L 269.26348,27.739086 h -1.63915 v 13.716102 h -2.37394 V 16.396925 h 8.15807 c 5.16238,0 8.53488,2.82612 8.53488,7.366752 0,2.82612 -1.09277,5.030494 -3.46671,6.424713 l 0.9232,1.262334 c 2.63771,-1.488424 4.12614,-4.258021 4.12614,-7.687047 0,-5.011652 -3.61744,-8.949379 -10.11751,-8.949379 z"
             style="font-family:'LIBRARY 3 AM';-inkscape-font-specification:'LIBRARY 3 AM'"
             id="path955" />
        </g>
      </g>
    </g>
  </g>
</svg>
