<?xml version="1.0" encoding="UTF-8" standalone="no"?>
<svg
   viewBox="0 0 180 115"
   version="1.1"
   id="svg32"
   sodipodi:docname="text.svg"
   inkscape:version="1.1.2 (b8e25be833, 2022-02-05)"
   xmlns:inkscape="http://www.inkscape.org/namespaces/inkscape"
   xmlns:sodipodi="http://sodipodi.sourceforge.net/DTD/sodipodi-0.dtd"
   xmlns="http://www.w3.org/2000/svg"
   xmlns:svg="http://www.w3.org/2000/svg">
  <sodipodi:namedview
     id="namedview34"
     pagecolor="#505050"
     bordercolor="#eeeeee"
     borderopacity="1"
     inkscape:pageshadow="0"
     inkscape:pageopacity="0"
     inkscape:pagecheckerboard="0"
     showgrid="false"
     inkscape:zoom="6.4086957"
     inkscape:cx="89.955902"
     inkscape:cy="57.5"
     inkscape:window-width="1920"
     inkscape:window-height="1001"
     inkscape:window-x="-9"
     inkscape:window-y="-9"
     inkscape:window-maximized="1"
     inkscape:current-layer="svg32" />
  <defs
     id="defs22">
    <linearGradient
       id="rainbow"
       x1="0"
       x2="0"
       y1="0"
       y2="100%"
       gradientUnits="userSpaceOnUse">
      <stop
         stop-color="#FF5B99"
         offset="0%"
         id="stop9" />
      <stop
         stop-color="#FF5447"
         offset="20%"
         id="stop11" />
      <stop
         stop-color="#FF7B21"
         offset="40%"
         id="stop13" />
      <stop
         stop-color="#EAFC37"
         offset="60%"
         id="stop15" />
      <stop
         stop-color="#4FCB6B"
         offset="80%"
         id="stop17" />
      <stop
         stop-color="#51F7FE"
         offset="100%"
         id="stop19" />
    </linearGradient>
    <!-- <style type="text/css">
      @import url(//fonts.googleapis.com/css?family=Oswald:700);

      body {
        font-family: "LIBRARY 3 AM", "Oswald", Impact, Charcoal, sans-serif;
        text-transform: uppercase;
        background: #000;
      }

      svg {
        max-height: 100vh;
        margin: 5vh auto;
        display: block;
      }
    </style> -->
  </defs>
  <g
     aria-label="gradienttextall up in here"
     id="text30"
     style="font-family:'LIBRARY 3 AM';fill:url(#rainbow)">
    <path
       d="m 19.395,18.885 v -1.26 H 11.1 v 4.23 h 7.035 v 5.385 c -1.905,1.2 -4.005,1.815 -6.39,1.815 -5.895,0 -8.61,-4.98 -8.61,-10.305 v -0.21 c 0,-4.965 2.925,-10.08 8.43,-10.08 2.07,0 3.69,0.42 5.265,1.365 l -0.87,1.56 C 14.715,10.62 13.545,10.17 11.655,10.17 c -4.275,0 -6.63,4.29 -6.63,8.37 v 0.21 c 0,4.335 2.1,8.595 6.675,8.595 1.455,0 2.79,-0.24 3.9,-0.75 l 0.645,-0.3 V 23.55 h -1.26 v 1.935 c -0.78,0.345 -1.845,0.6 -3.285,0.6 -3.99,0 -5.415,-3.99 -5.415,-7.335 v -0.21 c 0,-3.18 1.74,-7.11 5.37,-7.11 2.145,0 3.18,0.66 4.74,1.77 L 18.48,9.435 C 16.515,7.965 14.445,7.2 11.565,7.2 c -6.18,0 -9.69,5.595 -9.69,11.34 v 0.21 c 0,6.3 3.45,11.565 9.87,11.565 3.72,0 6.21,-1.38 7.65,-2.4 v -7.32 H 12.36 v -1.71 z"
       style="font-size:30px"
       id="path116" />
    <path
       d="m 32.400012,7.53 h -7.755 V 30 h 4.41 V 19.875 l 7.425,10.125 h 5.37 l -8.175,-11.025 c 2.295,-0.33 3.63,-1.935 3.63,-4.32 0,-2.52 -1.83,-4.155 -4.68,-4.155 h -4.83 v 5.61 h 1.26 v -4.35 h 3.57 c 2.085,0 3.42,1.005 3.42,2.895 0,1.68 -0.795,3.165 -3.57,3.165 h -1.23 l 8.1,10.92 h -2.22 l -8.025,-10.92 h -1.305 v 10.92 h -1.89 V 8.79 h 6.495 c 4.11,0 6.795,2.25 6.795,5.865 0,2.25 -0.87,4.005 -2.76,5.115 l 0.735,1.005 c 2.1,-1.185 3.285,-3.39 3.285,-6.12 0,-3.99 -2.88,-7.125 -8.055,-7.125 z"
       style="font-size:30px"
       id="path118" />
    <path
       d="m 56.040002,7.53 h -4.41 l -5.055,13.905 h 11.28 l -4.02,-11.055 -2.94,8.085 h 1.335 l 1.605,-4.395 2.22,6.105 h -7.68 l 4.14,-11.385 h 2.64 l 7.26,19.95 h -1.92 l -2.025,-5.595 h -12.525 l -2.49,6.855 h 4.59 l 1.41,-3.885 h -1.335 l -0.96,2.625 h -1.905 l 1.575,-4.335 h 10.755 l 2.025,5.595 h 4.605 z"
       style="font-size:30px"
       id="path120" />
    <path
       d="m 75.045019,7.53 h -7.08 v 1.26 h 7.08 c 2.655,0 4.86,0.855 6.36,2.49 1.59,1.725 2.43,4.305 2.43,7.47 0,6.06 -3.525,9.99 -9,9.99 h -5.61 V 11.76 h 5.82 c 3.585,0 5.64,2.475 5.64,6.99 0,4.215 -2.22,7.02 -5.64,7.02 h -2.67 V 13.455 h -1.26 V 27.03 h 3.93 c 4.125,0 6.9,-3.33 6.9,-8.28 0,-5.175 -2.58,-8.25 -6.885,-8.25 h -7.095 V 30 h 6.87 c 6.15,0 10.26,-4.485 10.26,-11.25 0,-7.215 -4.005,-11.22 -10.05,-11.22 z"
       style="font-size:30px"
       id="path122" />
    <path
       d="M 94.755001,11.76 V 7.53 h -4.41 v 1.26 h 3.15 v 1.71 h -3.15 V 30 h 4.41 V 13.47 h -1.26 v 15.27 h -1.89 V 11.76 Z"
       style="font-size:30px"
       id="path124" />
    <path
       d="m 105.54,25.77 v -8.415 h 7.68 v 1.71 h -5.79 v 1.26 h 7.05 v -4.23 h -10.2 V 27.03 h 9.495 v 1.71 H 102.39 V 8.79 h 11.175 v 1.71 h -9.285 v 3.885 h 1.26 V 11.76 h 9.285 V 7.53 H 101.13 V 30 h 13.905 v -4.23 z"
       style="font-size:30px"
       id="path126" />
    <path
       d="M 133.785,22.23 125.13,7.53 h -1.47 l 11.385,19.335 V 8.79 h 1.89 V 28.74 H 134.04 L 121.53,7.53 h -1.245 V 30 h 4.41 V 19.02 l -1.26,-2.145 V 28.74 h -1.89 V 10.035 L 133.32,30 h 4.875 V 7.53 h -4.41 z"
       style="font-size:30px"
       id="path128" />
    <path
       d="m 151.33504,7.53 v 21.21 h -1.89 V 7.53 h -7.125 v 4.23 h 3.975 V 10.5 h -2.715 V 8.79 h 4.605 V 30 h 4.41 V 8.79 h 4.59 v 1.71 h -2.7 v 1.26 h 3.96 V 7.53 Z"
       style="font-size:30px"
       id="path130" />
    <path
       d="M 21.97,41.315 V 87.27 H 17.875 V 41.315 H 2.4375 V 50.48 H 11.05 V 47.75 H 5.1675 V 44.045 H 15.145 V 90 H 24.7 V 44.045 h 9.945 v 3.705 h -5.85 v 2.73 h 8.58 v -9.165 z"
       style="font-size:65px"
       id="path132" />
    <path
       d="M 55.86745,80.835 V 62.6025 h 16.64 v 3.705 h -12.545 v 2.73 h 15.275 v -9.165 h -22.1 V 83.565 h 20.5725 V 87.27 H 49.04245 V 44.045 h 24.2125 v 3.705 h -20.1175 v 8.4175 h 2.73 V 50.48 h 20.1175 V 41.315 H 46.31245 V 90 h 30.1275 v -9.165 z"
       style="font-size:65px"
       id="path134" />
    <path
       d="m 115.43996,90 h 11.2125 l -16.25,-25.3175 15.015,-23.3675 h -11.18 l -9.425,14.6575 -9.457496,-14.6575 h -11.18 l 12.675,19.695 1.625,-2.535 -9.295,-14.43 h 4.68 l 10.952496,16.9975 10.92,-16.9975 h 4.68 l -13.26,20.6375 14.495,22.5875 h -4.7125 L 100.81496,62.18 82.939964,90 h 11.2125 l 8.319996,-12.935 -1.625,-2.535 -8.189996,12.74 h -4.7125 L 100.81496,67.2175 Z"
       style="font-size:65px"
       id="path136" />
    <path
       d="M 151.06,41.315 V 87.27 h -4.095 V 41.315 h -15.4375 v 9.165 h 8.6125 v -2.73 h -5.8825 v -3.705 h 9.9775 V 90 h 9.555 V 44.045 h 9.945 v 3.705 h -5.85 v 2.73 h 8.58 v -9.165 z"
       style="font-size:65px"
       id="path138" />
    <path
       d="M 8.89,95.02 H 5.95 l -3.37,9.27 h 7.52 l -2.68,-7.37 -1.96,5.39 h 0.89 l 1.07,-2.93 1.48,4.07 H 3.78 L 6.54,95.86 H 8.3 l 4.84,13.3 h -1.28 l -1.35,-3.73 H 2.16 L 0.5,110 H 3.56 L 4.5,107.41 H 3.61 l -0.64,1.75 H 1.7 l 1.05,-2.89 h 7.17 l 1.35,3.73 h 3.07 z"
       style="font-size:20px"
       id="path140" />
    <path
       d="M 17.680012,107.18 V 95.86 h 1.26 v 10.18 h 0.84 V 95.02 h -2.94 v 13 h 7.44 v 1.14 h -7.44 V 110 h 8.28 v -2.82 z"
       style="font-size:20px"
       id="path142" />
    <path
       d="M 28.710018,107.18 V 95.86 h 1.26 v 10.18 h 0.84 V 95.02 h -2.94 v 13 h 7.44 v 1.14 h -7.44 V 110 h 8.28 v -2.82 z"
       style="font-size:20px"
       id="path144" />
    <path
       d="m 55.330028,95.02 v 9.17 c 0,1.33 -0.35,2.24 -1.07,2.75 v 0.96 c 1,-0.45 1.91,-1.48 1.91,-3.71 v -8.33 h 1.26 v 8.33 c 0,1.83 -0.59,4.95 -4.43,5.17 v -1.99 c -0.14,0.01 -0.27,0.02 -0.42,0.02 -1.87,0 -2.76,-1.08 -2.76,-3.2 v -9.17 h -2.94 v 9.17 c 0,2.91 1.29,5.16 4.02,5.84 v -0.87 c -2.63,-0.78 -3.18,-3.16 -3.18,-4.97 v -8.33 h 1.26 v 8.33 c 0,3.17 1.86,3.94 3.18,4.02 v 1.99 c 0.14,0.01 0.28,0.01 0.42,0.01 3.89,0 5.69,-2.58 5.69,-6.02 v -9.17 z"
       style="font-size:20px"
       id="path146" />
    <path
       d="m 67.450042,95.02 h -5.18 V 110 h 2.94 v -7.02 h 2.38 c 1.95,0 3.08,-1.11 3.08,-3.05 0,-1.81 -1.13,-2.93 -2.94,-2.93 h -3.36 v 4 h 0.84 v -3.16 h 2.52 c 1.35,0 2.1,0.76 2.1,2.09 0,1.2 -0.51,2.21 -2.24,2.21 h -3.22 v 7.02 h -1.26 v -13.3 h 4.34 c 4.04,0 4.48,2.84 4.48,4.07 0,2.52 -1.55,4.19 -4.11,4.19 h -1.35 v 0.84 h 1.35 c 3.15,0 4.95,-2.17 4.95,-5.03 0,-2.59 -1.55,-4.91 -5.32,-4.91 z"
       style="font-size:20px"
       id="path148" />
    <path
       d="m 86.690053,97.84 v -2.82 h -2.94 v 0.84 h 2.1 V 97 h -2.1 v 13 h 2.94 V 98.98 h -0.84 v 10.18 h -1.26 V 97.84 Z"
       style="font-size:20px"
       id="path150" />
    <path
       d="m 99.940048,104.82 -5.77,-9.8 h -0.98 l 7.590002,12.89 V 95.86 h 1.26 v 13.3 h -1.93 L 91.770048,95.02 h -0.83 V 110 h 2.94 v -7.32 l -0.84,-1.43 v 7.91 h -1.26 V 96.69 l 7.85,13.31 h 3.250002 V 95.02 h -2.940002 z"
       style="font-size:20px"
       id="path152" />
    <path
       d="m 123.31007,95.02 v 5.7 h -7.61 v -4.86 h 1.26 v 3.72 h 0.84 v -4.56 h -2.94 v 6.54 h 9.29 v -5.7 h 1.26 v 13.3 h -1.26 v -6.46 h -9.29 v 7.3 h 2.94 v -5.32 h -0.84 v 4.48 h -1.26 v -5.62 h 7.61 V 110 h 2.94 V 95.02 Z"
       style="font-size:20px"
       id="path154" />
    <path
       d="m 133.19009,107.18 v -5.61 h 5.12 v 1.14 h -3.86 v 0.84 h 4.7 v -2.82 h -6.8 v 7.29 h 6.33 v 1.14 h -7.59 v -13.3 h 7.45 V 97 h -6.19 v 2.59 h 0.84 v -1.75 h 6.19 v -2.82 h -9.13 V 110 h 9.27 v -2.82 z"
       style="font-size:20px"
       id="path156" />
    <path
       d="m 148.19008,95.02 h -5.17 V 110 h 2.94 v -6.75 l 4.95,6.75 h 3.58 l -5.45,-7.35 c 1.53,-0.22 2.42,-1.29 2.42,-2.88 0,-1.68 -1.22,-2.77 -3.12,-2.77 h -3.22 v 3.74 h 0.84 v -2.9 h 2.38 c 1.39,0 2.28,0.67 2.28,1.93 0,1.12 -0.53,2.11 -2.38,2.11 h -0.82 l 5.4,7.28 h -1.48 l -5.35,-7.28 h -0.87 v 7.28 h -1.26 v -13.3 h 4.33 c 2.74,0 4.53,1.5 4.53,3.91 0,1.5 -0.58,2.67 -1.84,3.41 l 0.49,0.67 c 1.4,-0.79 2.19,-2.26 2.19,-4.08 0,-2.66 -1.92,-4.75 -5.37,-4.75 z"
       style="font-size:20px"
       id="path158" />
    <path
       d="m 160.00009,107.18 v -5.61 h 5.12 v 1.14 h -3.86 v 0.84 h 4.7 v -2.82 h -6.8 v 7.29 h 6.33 v 1.14 h -7.59 v -13.3 h 7.45 V 97 h -6.19 v 2.59 h 0.84 v -1.75 h 6.19 v -2.82 h -9.13 V 110 h 9.27 v -2.82 z"
       style="font-size:20px"
       id="path160" />
  </g>
</svg>
